<svg xmlns="http://www.w3.org/2000/svg" viewBox="0 0 200 200">
  <!-- Background -->
  <circle cx="100" cy="100" r="100" fill="#DCFCE7"/>

  <!-- Left ear -->
  <ellipse cx="66" cy="90" rx="20" ry="26" fill="#9CA3AF"/>
  <ellipse cx="69" cy="90" rx="13" ry="18" fill="#F3D5D5"/>

  <!-- Body -->
  <ellipse cx="103" cy="132" rx="40" ry="33" fill="#9CA3AF"/>

  <!-- Head -->
  <circle cx="100" cy="88" r="30" fill="#B0B8C1"/>

  <!-- Right ear -->
  <ellipse cx="134" cy="90" rx="20" ry="26" fill="#9CA3AF"/>
  <ellipse cx="131" cy="90" rx="13" ry="18" fill="#F3D5D5"/>

  <!-- Trunk -->
  <path d="M95 116 C88 128 82 140 80 152 C79 159 84 162 90 160"
        stroke="#9CA3AF" stroke-width="12" fill="none" stroke-linecap="round"/>

  <!-- Eyes -->
  <circle cx="90" cy="82" r="5.5" fill="white"/>
  <circle cx="91" cy="83" r="3.5" fill="#1F2937"/>
  <circle cx="90" cy="81" r="1" fill="white"/>
  <circle cx="111" cy="82" r="5.5" fill="white"/>
  <circle cx="112" cy="83" r="3.5" fill="#1F2937"/>
  <circle cx="111" cy="81" r="1" fill="white"/>

  <!-- Shield badge -->
  <path d="M114 116 L132 116 L132 134 L123 143 L114 134 Z" fill="#059669"/>
  <path d="M114 116 L132 116 L132 134 L123 143 L114 134 Z" fill="none" stroke="rgba(255,255,255,0.3)" stroke-width="1"/>
  <line x1="123" y1="121" x2="123" y2="138" stroke="white" stroke-width="2.5" stroke-linecap="round"/>
  <line x1="117" y1="128" x2="129" y2="128" stroke="white" stroke-width="2.5" stroke-linecap="round"/>

  <!-- Legs -->
  <rect x="74" y="154" width="16" height="22" rx="8" fill="#9CA3AF"/>
  <rect x="96" y="156" width="16" height="20" rx="8" fill="#9CA3AF"/>
  <rect x="118" y="154" width="16" height="22" rx="8" fill="#9CA3AF"/>
</svg>
