<svg xmlns="http://www.w3.org/2000/svg" viewBox="0 0 200 180" fill="none">
  <defs>
    <linearGradient id="pine-grad" x1="60" y1="20" x2="140" y2="160" gradientUnits="userSpaceOnUse">
      <stop offset="0%" stop-color="#1B6B3A" stop-opacity="0.15"/>
      <stop offset="100%" stop-color="#3182F6" stop-opacity="0.1"/>
    </linearGradient>
    <linearGradient id="tree-grad" x1="80" y1="30" x2="120" y2="140" gradientUnits="userSpaceOnUse">
      <stop offset="0%" stop-color="#1B6B3A"/>
      <stop offset="100%" stop-color="#3182F6"/>
    </linearGradient>
  </defs>
  <!-- 배경 원 -->
  <circle cx="100" cy="90" r="75" fill="url(#pine-grad)"/>
  <!-- 소나무 -->
  <path d="M100 30 L78 65 L86 65 L72 92 L82 92 L66 120 L134 120 L118 92 L128 92 L114 65 L122 65 Z" fill="url(#tree-grad)" opacity="0.7"/>
  <!-- 줄기 -->
  <rect x="94" y="120" width="12" height="20" rx="2" fill="url(#tree-grad)" opacity="0.5"/>
  <!-- 땅 -->
  <ellipse cx="100" cy="145" rx="40" ry="4" fill="url(#tree-grad)" opacity="0.15"/>
  <!-- 빗방울들 -->
  <circle cx="45" cy="50" r="3" fill="#3182F6" opacity="0.3"/>
  <circle cx="155" cy="70" r="2.5" fill="#3182F6" opacity="0.25"/>
  <circle cx="38" cy="90" r="2" fill="#3182F6" opacity="0.2"/>
  <circle cx="162" cy="45" r="2" fill="#3182F6" opacity="0.2"/>
  <circle cx="50" cy="120" r="1.8" fill="#3182F6" opacity="0.15"/>
  <circle cx="150" cy="110" r="2.2" fill="#3182F6" opacity="0.2"/>
</svg>
